<svg width="554" height="188" viewBox="0 0 554 188" fill="none" xmlns="http://www.w3.org/2000/svg">
<path d="M237.251 37.3519C257.934 37.3519 275.76 44.6397 290.632 59.3139C305.504 73.9881 312.989 91.6168 312.989 112.299C312.989 132.98 305.504 150.609 290.632 165.086C275.76 179.563 257.934 186.851 237.251 186.851C216.568 186.851 198.84 179.563 183.969 165.086C169.097 150.511 161.71 132.98 161.71 112.299C161.71 91.6168 169.097 73.9881 183.969 59.3139C198.742 44.6397 216.568 37.3519 237.251 37.3519ZM553.401 112.299V186.851H521.983V172.768C509.081 182.124 494.308 186.851 477.663 186.851C456.98 186.851 439.252 179.563 424.38 165.086C409.509 150.609 402.122 132.98 402.122 112.299C402.122 91.6168 409.509 73.9881 424.38 59.3139C439.252 44.6397 456.98 37.3519 477.663 37.3519C498.346 37.3519 516.172 44.6397 531.044 59.3139C546.015 73.8896 553.401 91.6168 553.401 112.299ZM477.762 66.9957C465.45 66.9957 455.011 71.4275 446.442 80.3896C437.873 89.2532 433.638 99.8895 433.638 112.299C433.638 124.609 437.873 135.147 446.442 144.011C455.011 152.776 465.45 157.207 477.762 157.207C490.073 157.207 500.611 152.776 509.18 144.011C517.748 135.245 522.082 124.708 522.082 112.299C522.082 99.988 517.748 89.3517 509.18 80.3896C500.513 71.526 490.073 66.9957 477.762 66.9957ZM362.037 0.124756H393.455V186.851H362.037V0.124756ZM321.755 0.124756H353.173V186.851H321.755V0.124756ZM237.251 66.9957C224.94 66.9957 214.5 71.4275 205.932 80.3896C197.363 89.2532 193.128 99.8895 193.128 112.299C193.128 124.609 197.363 135.147 205.932 144.011C214.5 152.776 224.94 157.207 237.251 157.207C249.562 157.207 260.101 152.776 268.669 144.011C277.238 135.245 281.571 124.708 281.571 112.299C281.571 99.988 277.238 89.3517 268.669 80.3896C260.002 71.526 249.562 66.9957 237.251 66.9957Z" fill="#252969"/>
<rect width="12" height="112" rx="6" transform="matrix(-0.670349 -0.742046 0.740541 -0.672011 22.6426 164.472)" fill="#252969"/>
<rect width="12" height="117" rx="6" transform="matrix(-0.670349 -0.742046 0.740541 -0.672011 11.6426 137.472)" fill="#252969"/>
<rect width="12" height="60" rx="6" transform="matrix(-0.670349 -0.742046 0.740541 -0.672011 8.64258 103.472)" fill="#252969"/>
<rect width="12" height="117" rx="6" transform="matrix(-0.670349 -0.742046 0.740541 -0.672011 48.6426 178.472)" fill="#252969"/>
<rect width="12" height="59" rx="6" transform="matrix(-0.670349 -0.742046 0.740541 -0.672011 94.6426 173.472)" fill="#252969"/>
<rect width="12" height="11" rx="5.5" transform="matrix(-0.670349 -0.742046 0.740541 -0.672011 79.6426 187.472)" fill="#252969"/>
<rect width="12" height="11" rx="5.5" transform="matrix(-0.670349 -0.742046 0.740541 -0.672011 61.6426 57.4717)" fill="#252969"/>
<rect width="12" height="11" rx="5.5" transform="matrix(-0.670349 -0.742046 0.740541 -0.672011 111.643 83.4717)" fill="#252969"/>
</svg>
